# xmcd CD database file
# Copyright (C) 1995-1998 Ti Kan
#
# Track frame offsets:
#	150
#	5492
#	10859
#	17946
#	23252
#	27075
#	35639
#	38351
#	50168
#	54537
#	60118
#	70619
#	76074
#	83154
#	93061
#	100210
#	106419
#	110705
#	113695
#	118588
#	121065
#	131901
#	136747
#	144565
#	158562
#	166139
#	177796
#	183771
#	191548
#	201045
#	205844
#	215566
#	217842
#	228450
#	232551
#
# Disc length: 3160 seconds
#
# Revision: 1
# Processed by: cddbd v1.4PL0 Copyright (c) Steve Scherf et al.
# Submitted via: CDex 1.30Release
#
DISCID=b30c5623
DTITLE=K.Reid/G. Brooker - Pianorama
DYEAR=1900
DGENRE=Blues
TTITLE0=Pianorama - A whiter shade of pale
TTITLE1=Pianorama - Mélodie antique française - Opus 39
TTITLE2=Pianorama - Smile
TTITLE3=Pianorama - Lascia ch'io pianga
TTITLE4=Pianorama - La marche de Sacco and Vanzetti
TTITLE5=Pianorama - Pomp and circumstances - march n°1
TTITLE6=Pianorama - Choeur des Bohémiens et des Matadors
TTITLE7=Pianorama - Les chariots de feu
TTITLE8=Pianorama - Menuet en Sol Majeur
TTITLE9=Pianorama - Greensleeves
TTITLE10=Pianorama - Un homme et une femme
TTITLE11=Pianorama - Valse favorite
TTITLE12=Pianorama - Go Down Moses
TTITLE13=Pianorama - Muzette
TTITLE14=Pianorama - Borsalino
TTITLE15=Pianorama - Les oiseaux métalliques
TTITLE16=Pianorama - Premier chagrin - Opus 68 n°16
TTITLE17=Pianorama - Impertinence
TTITLE18=Pianorama - La ballade de Johnny-Jane
TTITLE19=Pianorama - Le petit cavalier
TTITLE20=Pianorama - Roméo et Juliette
TTITLE21=Pianorama - Maudit blues
TTITLE22=Pianorama - Sicilienne
TTITLE23=Pianorama - 1ère Gymnopédie
TTITLE24=Pianorama - I got plenty o' nuttin
TTITLE25=Pianorama - Appartenir
TTITLE26=Pianorama - Romance
TTITLE27=Pianorama - Sweet blues for Cathie
TTITLE28=Pianorama - Yesterday
TTITLE29=Pianorama - Menuet du bourgeois gentilhomme
TTITLE30=Pianorama - Toute la pluie tombe sur moi
TTITLE31=Pianorama - Scherzo
TTITLE32=Pianorama - Chez Laurette
TTITLE33=Pianorama - Heigh-Ho
TTITLE34=Pianorama - Air des clochettes
EXTD=ID3G:   0
EXTT0=
EXTT1=
EXTT2=
EXTT3=
EXTT4=
EXTT5=
EXTT6=
EXTT7=
EXTT8=
EXTT9=
EXTT10=
EXTT11=
EXTT12=
EXTT13=
EXTT14=
EXTT15=
EXTT16=
EXTT17=
EXTT18=
EXTT19=
EXTT20=
EXTT21=
EXTT22=
EXTT23=
EXTT24=
EXTT25=
EXTT26=
EXTT27=
EXTT28=
EXTT29=
EXTT30=
EXTT31=
EXTT32=
EXTT33=
EXTT34=
PLAYORDER=
